:SAMPLES-PER-SECOND 30
:FULLY-SPECIFIED
:DEGREES
284
root  -2.06969 18.8452 12.649 -122.685 5.38426 -177.972
RightUpLeg  -82.5182 -6.81525 8.07925
RightLeg  130.359 22.1367 -7.42865
RightFoot  -18.6639 -0.112514 -3.53326
RightToes  -5.82073e-011 -3.18055e-015 -2.98177e-016
Spine  30.2019 0.5414 6.16428
Spine1  2.12767 -1.2386 15.1164
HEad  -28.961 6.67704 3.45098
LeftShoulder1  -3.88251e-019 9.70628e-020 -3.87848e-018
LeftArm  -8.23107 -33.8297 -59.6417
LeftForeArm  -3.57849 -9.92587 1.15114
LeftHand  -7.555 -8.76239 58.4952
RightShoulder  3.01019 7.69154 14.8801
RightArm  2.1417 15.8357 68.3964
RightForeArm  19.7689 12.1203 -8.82231
RightHand  -12.5903 10.7902 -76.4096
LeftUpLeg  -43.0558 -1.55097 -15.0047
LeftLeg  89.917 -15.8985 26.9075
LeftFoot  -5.65165 0.306169 -4.93913
LeftToes  -2.27483e-011 -5.53417e-011 9.36564e-012
285
root  -2.04778 18.7706 12.0547 -122.819 3.56274 -178.54
RightUpLeg  -83.5984 -6.41949 9.32922
RightLeg  128.442 23.7744 -9.75609
RightFoot  -12.348 0.0517885 -2.4242
RightToes  -5.82073e-011 -3.18055e-015 -2.98177e-016
Spine  28.5098 0.248368 8.14392
Spine1  4.80773 -1.27375 14.1368
HEad  -28.3911 4.31528 3.43787
LeftShoulder1  -3.88251e-019 9.70628e-020 -3.87848e-018
LeftArm  -5.11294 -33.8959 -61.7301
LeftForeArm  -4.85977 -12.1537 0.351232
LeftHand  -8.02359 -9.15069 60.0844
RightShoulder  3.13828 7.52635 16.0088
RightArm  0.253797 14.0018 65.3599
RightForeArm  20.3588 14.06 -9.98882
RightHand  -12.7387 10.8783 -76.7667
LeftUpLeg  -41.1209 -2.82577 -13.5796
LeftLeg  88.2292 -15.1066 27.0189
LeftFoot  -5.83247 0.247604 -4.14467
LeftToes  -2.27483e-011 -5.53417e-011 9.36564e-012
286
root  -1.94078 18.6832 11.4589 -123.283 1.61311 -179.533
RightUpLeg  -82.5105 -6.38564 10.4952
RightLeg  126.311 25.4775 -12.4573
RightFoot  -6.41772 0.0742083 -0.988175
RightToes  -5.82073e-011 -3.18055e-015 -2.98177e-016
Spine  27.1482 -0.15905 8.98264
Spine1  7.37638 -1.81062 13.9934
HEad  -28.3353 2.75085 3.65637
LeftShoulder1  -3.88251e-019 9.70628e-020 -3.87848e-018
LeftArm  -2.60011 -34.6959 -63.5468
LeftForeArm  -4.86503 -12.9465 -0.53681
LeftHand  -8.57903 -9.51202 62.1709
RightShoulder  3.30315 7.53364 17.1038
RightArm  -0.856279 12.1543 62.8917
RightForeArm  19.9559 15.5384 -10.4412
RightHand  -12.7323 10.8033 -76.9965
LeftUpLeg  -38.8076 -4.23607 -12.0749
LeftLeg  86.5515 -14.2925 26.8925
LeftFoot  -6.45328 0.212508 -3.97232
LeftToes  -2.27483e-011 -5.53417e-011 9.36564e-012
287
root  -1.74631 18.6106 10.8744 -123.251 -0.029129 179.767
RightUpLeg  -80.2906 -6.19915 11.8154
RightLeg  124.112 26.5585 -14.6905
RightFoot  -4.32298 -0.0432252 0.704641
RightToes  -5.82073e-011 -3.18055e-015 -2.98177e-016
Spine  25.8129 -0.178519 8.7147
Spine1  9.50556 -2.29604 14.4954
HEad  -28.8063 1.81499 3.77004
LeftShoulder1  -3.88251e-019 9.70628e-020 -3.87848e-018
LeftArm  -0.871129 -35.8663 -65.9179
LeftForeArm  -3.44948 -11.6197 -0.967726
LeftHand  -9.27652 -9.96572 64.6039
RightShoulder  3.18775 7.29681 16.7359
RightArm  -1.70983 10.6714 62.4823
RightForeArm  18.9917 14.5139 -10.2459
RightHand  -12.8011 10.6116 -77.9615
LeftUpLeg  -37.0666 -5.2027 -10.3718
LeftLeg  84.8196 -13.4333 26.2764
LeftFoot  -7.22656 0.213033 -4.53339
LeftToes  -2.27483e-011 -5.53417e-011 9.36564e-012
288
root  -1.52869 18.6396 10.3008 -122.368 -1.272 -179.361
RightUpLeg  -78.3534 -4.94163 13.9161
RightLeg  121.675 26.6562 -15.9964
RightFoot  -4.77678 -0.118371 1.71821
RightToes  -5.82073e-011 -3.18055e-015 -2.98177e-016
Spine  24.9334 0.472217 9.72845
Spine1  10.1897 -1.27069 13.5217
HEad  -29.1903 0.280548 3.53128
LeftShoulder1  -3.88251e-019 9.70628e-020 -3.87848e-018
LeftArm  1.51685 -36.8645 -69.5818
LeftForeArm  -1.85155 -9.65003 -1.48747
LeftHand  -9.98686 -10.5471 66.4704
RightShoulder  2.92704 6.84534 15.7402
RightArm  -2.77858 8.6819 62.2864
RightForeArm  18.0736 12.2909 -9.86085
RightHand  -13.1196 10.5523 -79.5693
LeftUpLeg  -36.4188 -4.73743 -7.90855
LeftLeg  82.847 -12.5043 25.5815
LeftFoot  -7.44538 0.218365 -4.83026
LeftToes  -2.27483e-011 -5.53417e-011 9.36564e-012
289
root  -1.30328 18.6925 9.69483 -120.274 -1.63963 -175.941
RightUpLeg  -77.9062 -1.2578 16.7796
RightLeg  119.15 26.0335 -16.4747
RightFoot  -4.40784 -0.122427 1.69273
RightToes  -5.82073e-011 -3.18055e-015 -2.98177e-016
Spine  23.8831 2.07094 12.4398
Spine1  9.69474 1.7973 10.0638
HEad  -29.2268 -2.00162 2.33329
LeftShoulder1  -3.88251e-019 9.70628e-020 -3.87848e-018
LeftArm  4.68213 -37.4523 -73.5348
LeftForeArm  -0.545384 -8.1446 -2.75808
LeftHand  -10.5469 -10.9894 67.87
RightShoulder  3.01448 6.73146 16.5473
RightArm  -3.30412 5.47657 60.0167
RightForeArm  17.3849 12.5791 -9.59211
RightHand  -13.2097 10.724 -79.3536
LeftUpLeg  -36.9282 -1.22981 -4.78781
LeftLeg  80.7376 -11.5672 25
LeftFoot  -7.47877 0.204584 -4.58087
LeftToes  -2.27483e-011 -5.53417e-011 9.36564e-012
